<?xml version="1.0" standalone="no"?>
<!DOCTYPE svg PUBLIC "-//W3C//DTD SVG 20010904//EN"
 "http://www.w3.org/TR/2001/REC-SVG-20010904/DTD/svg10.dtd">
<svg version="1.0" xmlns="http://www.w3.org/2000/svg"
 width="250.000000pt" height="250.000000pt" viewBox="0 0 250.000000 250.000000"
 preserveAspectRatio="xMidYMid meet">
<metadata>
Created by potrace 1.14, written by Peter Selinger 2001-2017
</metadata>
<g transform="translate(0.000000,250.000000) scale(0.100000,-0.100000)"
fill="#000000" stroke="none">
<path d="M1141 2164 c-56 -97 -100 -179 -98 -181 2 -2 97 -2 210 -1 l206 3
-102 177 c-56 98 -105 178 -108 178 -3 0 -52 -79 -108 -176z"/>
<path d="M1122 1773 c50 -87 99 -171 109 -187 l17 -28 15 23 c32 52 197 339
197 344 0 3 -97 5 -214 5 l-215 0 91 -157z"/>
<path d="M882 1703 c-56 -97 -100 -178 -98 -180 1 -2 96 -2 209 -1 l206 3
-102 177 c-56 98 -104 177 -107 178 -3 0 -51 -79 -108 -177z"/>
<path d="M1403 1702 l-103 -177 105 -3 c58 -1 152 -1 210 0 l105 3 -103 177
c-56 98 -104 178 -107 178 -3 0 -51 -80 -107 -178z"/>
<path d="M878 1286 c59 -102 109 -186 112 -186 5 1 210 354 210 362 0 3 -97 6
-214 7 l-215 2 107 -185z"/>
<path d="M1300 1463 c0 -10 205 -363 210 -363 5 1 196 328 206 355 6 14 -15
15 -205 15 -116 -1 -211 -4 -211 -7z"/>
<path d="M618 1237 l-106 -182 104 -3 c56 -1 152 -1 213 0 l109 3 -104 180
c-58 98 -106 180 -107 182 -2 1 -51 -79 -109 -180z"/>
<path d="M1668 1238 l-106 -183 104 -3 c56 -1 152 -1 212 0 l110 3 -105 180
c-57 99 -105 181 -107 182 -2 2 -50 -79 -108 -179z"/>
<path d="M534 958 c14 -24 63 -107 108 -185 45 -79 83 -142 84 -140 1 1 41 70
89 152 48 83 96 165 107 183 l20 32 -217 0 -216 0 25 -42z"/>
<path d="M1587 952 c16 -26 64 -109 107 -185 44 -75 81 -136 82 -134 1 1 41
70 89 152 48 83 96 165 107 183 l20 32 -216 0 -216 0 27 -48z"/>
<path d="M415 873 c-32 -54 -80 -135 -106 -181 -27 -45 -49 -85 -49 -87 0 -3
95 -5 211 -5 165 0 210 3 206 13 -3 6 -50 90 -105 185 l-100 173 -57 -98z"/>
<path d="M1921 786 c-55 -96 -101 -177 -101 -180 0 -4 95 -6 211 -6 116 0 209
4 207 8 -11 30 -202 352 -208 352 -4 0 -53 -79 -109 -174z"/>
<path d="M262 542 c12 -30 204 -352 209 -352 7 0 209 344 209 355 0 3 -95 5
-211 5 -116 0 -209 -4 -207 -8z"/>
<path d="M1367 403 c47 -82 95 -165 107 -185 11 -21 23 -38 26 -38 5 1 201
340 208 360 2 6 -79 10 -212 10 l-215 0 86 -147z"/>
<path d="M1820 545 c0 -11 203 -355 210 -355 5 0 198 324 208 352 2 4 -91 8
-207 8 -116 0 -211 -2 -211 -5z"/>
<path d="M107 338 l-106 -183 110 -3 c61 -1 157 -1 214 0 l104 3 -103 178
c-57 98 -106 180 -108 183 -3 2 -53 -78 -111 -178z"/>
<path d="M1128 337 l-106 -182 104 -3 c56 -1 153 -1 214 0 l110 3 -101 175
c-56 96 -104 178 -108 182 -4 5 -55 -74 -113 -175z"/>
<path d="M1658 335 l-107 -185 215 0 c117 0 214 2 214 4 0 5 -200 350 -208
358 -4 4 -56 -76 -114 -177z"/>
<path d="M2178 338 l-106 -183 104 -3 c56 -1 152 -1 212 0 l110 3 -103 178
c-57 98 -105 180 -108 183 -2 2 -51 -78 -109 -178z"/>
</g>
</svg>
